<?xml version="1.0" encoding="UTF-8" standalone="no"?>
<svg
   xmlns:dc="http://purl.org/dc/elements/1.1/"
   xmlns:cc="http://creativecommons.org/ns#"
   xmlns:rdf="http://www.w3.org/1999/02/22-rdf-syntax-ns#"
   xmlns:svg="http://www.w3.org/2000/svg"
   xmlns="http://www.w3.org/2000/svg"
   xmlns:xlink="http://www.w3.org/1999/xlink"
   xmlns:sodipodi="http://sodipodi.sourceforge.net/DTD/sodipodi-0.dtd"
   xmlns:inkscape="http://www.inkscape.org/namespaces/inkscape"
   width="2836.3923mm"
   height="1024mm"
   viewBox="0 0 2836.3923 1024"
   version="1.1"
   id="svg8"
   inkscape:version="1.0.2 (e86c870879, 2021-01-15)"
   sodipodi:docname="bofied Logo.svg">
  <defs
     id="defs2">
    <rect
       x="1274.903"
       y="253.60538"
       width="2439.5779"
       height="622.3371"
       id="rect496" />
    <linearGradient
       inkscape:collect="always"
       id="linearGradient2651">
      <stop
         style="stop-color:#cccccc;stop-opacity:1"
         offset="0"
         id="stop2647" />
      <stop
         style="stop-color:#000000;stop-opacity:1"
         offset="1"
         id="stop2649" />
    </linearGradient>
    <radialGradient
       inkscape:collect="always"
       xlink:href="#linearGradient2651"
       id="radialGradient2653"
       cx="292.27304"
       cy="511.79279"
       fx="292.27304"
       fy="511.79279"
       r="164.75067"
       gradientTransform="matrix(1.1180165,0,2.8021715e-5,1.5543219,-34.41642,-283.8128)"
       gradientUnits="userSpaceOnUse" />
    <filter
       style="color-interpolation-filters:sRGB"
       inkscape:label="Drop Shadow"
       id="filter2799"
       width="5"
       height="5"
       x="-2"
       y="-2">
      <feFlood
         flood-opacity="0.423529"
         flood-color="rgb(255,255,255)"
         result="flood"
         id="feFlood2789" />
      <feComposite
         in="flood"
         in2="SourceGraphic"
         operator="in"
         result="composite1"
         id="feComposite2791" />
      <feGaussianBlur
         in="composite1"
         stdDeviation="36.2052"
         result="blur"
         id="feGaussianBlur2793" />
      <feOffset
         dx="0"
         dy="0"
         result="offset"
         id="feOffset2795" />
      <feComposite
         in="SourceGraphic"
         in2="offset"
         operator="over"
         result="composite2"
         id="feComposite2797" />
    </filter>
    <filter
       style="color-interpolation-filters:sRGB"
       inkscape:label="Drop Shadow"
       id="filter348">
      <feFlood
         flood-opacity="1"
         flood-color="rgb(0,0,0)"
         result="flood"
         id="feFlood338" />
      <feComposite
         in="flood"
         in2="SourceGraphic"
         operator="out"
         result="composite1"
         id="feComposite340" />
      <feGaussianBlur
         in="composite1"
         stdDeviation="9.28212"
         result="blur"
         id="feGaussianBlur342" />
      <feOffset
         dx="0"
         dy="0"
         result="offset"
         id="feOffset344" />
      <feComposite
         in="offset"
         in2="SourceGraphic"
         operator="atop"
         result="composite2"
         id="feComposite346" />
    </filter>
    <filter
       style="color-interpolation-filters:sRGB;"
       inkscape:label="Invert"
       id="filter96">
      <feColorMatrix
         type="hueRotate"
         values="180"
         result="color1"
         id="feColorMatrix92" />
      <feColorMatrix
         values="-1 0 0 0 1 0 -1 0 0 1 0 0 -1 0 1 -0.21 -0.72 -0.07 2 0 "
         result="color2"
         id="feColorMatrix94" />
    </filter>
  </defs>
  <sodipodi:namedview
     id="base"
     pagecolor="#ffffff"
     bordercolor="#666666"
     borderopacity="1.0"
     inkscape:pageopacity="0.0"
     inkscape:pageshadow="2"
     inkscape:zoom="0.12374369"
     inkscape:cx="2244.2564"
     inkscape:cy="1855.6882"
     inkscape:document-units="mm"
     inkscape:current-layer="g99"
     inkscape:document-rotation="0"
     showgrid="false"
     guidetolerance="20"
     objecttolerance="20"
     inkscape:snap-tangential="true"
     inkscape:snap-perpendicular="true"
     gridtolerance="10"
     inkscape:snap-path-clip="true"
     inkscape:snap-path-mask="true"
     inkscape:snap-global="false"
     inkscape:window-width="3072"
     inkscape:window-height="1664"
     inkscape:window-x="0"
     inkscape:window-y="0"
     inkscape:window-maximized="1"
     fit-margin-top="0"
     fit-margin-left="0"
     fit-margin-right="0"
     fit-margin-bottom="0">
    <sodipodi:guide
       position="-1.3392773e-05,-3.7543649e-05"
       orientation="0,3870.2362"
       id="guide136" />
    <sodipodi:guide
       position="1024,-3.7543649e-05"
       orientation="3870.2362,0"
       id="guide138" />
    <sodipodi:guide
       position="1024,-1024"
       orientation="0,-3870.2362"
       id="guide140" />
    <sodipodi:guide
       position="-1.3392773e-05,-1024"
       orientation="-3870.2362,0"
       id="guide142" />
  </sodipodi:namedview>
  <metadata
     id="metadata5">
    <rdf:RDF>
      <cc:Work
         rdf:about="">
        <dc:format>image/svg+xml</dc:format>
        <dc:type
           rdf:resource="http://purl.org/dc/dcmitype/StillImage" />
        <dc:title></dc:title>
      </cc:Work>
    </rdf:RDF>
  </metadata>
  <g
     inkscape:label="Layer 1"
     inkscape:groupmode="layer"
     id="layer1"
     transform="translate(-1.2679687e-5)">
    <g
       id="g2143"
       transform="translate(-63.745959)">
      <g
         id="g99">
        <g
           id="g102"
           style="filter:url(#filter96)">
          <g
             id="g210">
            <g
               id="g92"
               transform="matrix(0.82157798,0,0,0.82157798,115.53924,91.352065)">
              <a
                 id="a2167">
                <path
                   style="stroke-width:1.14299;filter:url(#filter2799)"
                   d="m 438.84841,768.02959 c -20.19665,0 -36.57555,16.37941 -36.57555,36.57606 v 146.3027 c 0,20.19665 16.3789,36.57555 36.57555,36.57555 h 146.30268 c 20.19665,0 36.57608,-16.3789 36.57608,-36.57555 v -146.3027 c 0,-20.19665 -16.37943,-36.57606 -36.57608,-36.57606 z"
                   id="path2629" />
                <path
                   style="fill:url(#radialGradient2653);fill-opacity:1;stroke-width:1.14299"
                   d="m 375.84708,255.92442 -83.62125,146.34817 c 0.9806,219.06996 0.068,-0.0708 0,219.4543 l 83.62125,146.34869 c 12.68717,-21.7854 36.02672,-36.62154 63.00133,-36.62154 h 0.32039 L 365.69731,602.87896 V 548.57529 H 621.72717 V 511.99974 475.42419 H 365.69731 V 421.12106 L 439.1688,292.54594 h -0.32039 c -26.97461,0 -50.31416,-14.83614 -63.00133,-36.62152 z"
                   id="path2627" />
                <path
                   style="stroke-width:1.14299;filter:url(#filter2799)"
                   d="m 438.84841,36.516102 c -20.19665,0 -36.57555,16.37886 -36.57555,36.57554 V 219.39435 c 0,20.19659 16.3789,36.57606 36.57555,36.57606 h 146.30268 c 20.19665,0 36.57608,-16.37947 36.57608,-36.57606 V 73.091642 c 0,-20.19668 -16.37943,-36.57554 -36.57608,-36.57554 z"
                   id="path116" />
              </a>
              <g
                 id="g212"
                 transform="matrix(1.1198411,0,0,1.1198411,148.1837,-105.86803)">
                <circle
                   style="fill:#ffffff;stroke-width:0.202775;filter:url(#filter348)"
                   id="circle350"
                   cx="128.20132"
                   cy="551.74622"
                   r="52.570953"
                   transform="matrix(1.95978,0,0,1.95978,-123.04507,-529.55497)" />
                <circle
                   style="fill:#ffffff;stroke-width:0.202775;filter:url(#filter348)"
                   id="path204"
                   cx="128.20132"
                   cy="551.74622"
                   r="52.570953" />
                <path
                   fill="currentColor"
                   d="m 35.405351,458.95019 c -51.262309,51.26231 -51.262309,134.32968 -9e-6,185.59198 51.2623,51.2623 134.329668,51.2623 185.591978,-1e-5 51.26229,-51.26228 51.26229,-134.32965 -1e-5,-185.59195 -51.2623,-51.2623 -134.329673,-51.2623 -185.591959,-2e-5 z M 68.332947,611.61457 56.359274,623.58824 C 16.733886,583.96285 16.733893,519.52952 56.359286,479.90413 l 11.97368,11.97368 c -33.002454,33.00245 -33.00246,86.73432 -1.9e-5,119.73676 z M 164.12236,587.6672 c -19.83141,19.83141 -52.01066,19.83142 -71.842062,2e-5 -19.831404,-19.83141 -19.831398,-52.01066 1.3e-5,-71.84207 19.831389,-19.83139 52.010649,-19.8314 71.842049,0 19.8314,19.83141 19.83139,52.01066 0,71.84205 z m -47.8947,-47.8947 c -6.62295,6.62295 -6.62296,17.32442 -1e-5,23.94737 6.62293,6.62293 17.32442,6.62293 23.94736,-10e-6 6.62294,-6.62293 6.62292,-17.32441 -10e-6,-23.94735 -6.62295,-6.62294 -17.32441,-6.62294 -23.94734,-10e-6 z"
                   id="path193"
                   style="stroke-width:0.529166" />
                <g
                   id="g358">
                  <circle
                     style="fill:#ffffff;stroke-width:0.202775;filter:url(#filter348)"
                     id="circle352"
                     cx="638.19086"
                     cy="418.80026"
                     r="52.570953"
                     transform="matrix(0.39136404,0,0,0.39798426,383.11593,251.79689)" />
                  <circle
                     style="fill:#ffffff;stroke-width:0.202775;filter:url(#filter348)"
                     id="circle354"
                     cx="638.19086"
                     cy="418.80026"
                     r="52.570953"
                     transform="matrix(0.39136404,0,0,0.39798426,436.51295,251.79689)" />
                </g>
                <g
                   id="g364"
                   transform="translate(0,133.27336)">
                  <circle
                     style="fill:#ffffff;stroke-width:0.202775;filter:url(#filter348)"
                     id="circle360"
                     cx="638.19086"
                     cy="418.80026"
                     r="52.570953"
                     transform="matrix(0.39136404,0,0,0.39798426,383.11593,251.79689)" />
                  <circle
                     style="fill:#ffffff;stroke-width:0.202775;filter:url(#filter348)"
                     id="circle362"
                     cx="638.19086"
                     cy="418.80026"
                     r="52.570953"
                     transform="matrix(0.39136404,0,0,0.39798426,436.51295,251.79689)" />
                </g>
                <g
                   id="g370"
                   transform="translate(0,266.52964)">
                  <circle
                     style="fill:#ffffff;stroke-width:0.202775;filter:url(#filter348)"
                     id="circle366"
                     cx="638.19086"
                     cy="418.80026"
                     r="52.570953"
                     transform="matrix(0.39136404,0,0,0.39798426,383.11593,251.79689)" />
                  <circle
                     style="fill:#ffffff;stroke-width:0.202775;filter:url(#filter348)"
                     id="circle368"
                     cx="638.19086"
                     cy="418.80026"
                     r="52.570953"
                     transform="matrix(0.39136404,0,0,0.39798426,436.51295,251.79689)" />
                </g>
              </g>
              <path
                 fill="currentColor"
                 d="M 961.21292,422.70947 H 544.5237 c -16.43783,0 -29.76353,-13.3257 -29.76353,-29.76353 V 333.4189 c 0,-16.43783 13.3257,-29.76351 29.76353,-29.76351 h 416.68922 c 16.43783,0 29.76353,13.32568 29.76353,29.76351 v 59.52704 c 0,16.43783 -13.3257,29.76353 -29.76353,29.76353 z m -44.64527,-81.84969 c -12.32859,0 -22.32263,9.99404 -22.32263,22.32263 0,12.32865 9.99404,22.32265 22.32263,22.32265 12.32859,0 22.32263,-9.994 22.32263,-22.32265 0,-12.32859 -9.99404,-22.32263 -22.32263,-22.32263 z m -59.52702,0 c -12.32863,0 -22.32263,9.99404 -22.32263,22.32263 0,12.32865 9.994,22.32265 22.32263,22.32265 12.32861,0 22.32264,-9.994 22.32264,-22.32265 0,-12.32859 -9.99403,-22.32263 -22.32264,-22.32263 z M 961.21292,571.52703 H 544.5237 c -16.43783,0 -29.76353,-13.3257 -29.76353,-29.76353 v -59.52701 c 0,-16.43783 13.3257,-29.76353 29.76353,-29.76353 h 416.68922 c 16.43783,0 29.76353,13.3257 29.76353,29.76353 v 59.52701 c 0,16.43783 -13.3257,29.76353 -29.76353,29.76353 z m -44.64527,-81.84965 c -12.32859,0 -22.32263,9.994 -22.32263,22.32263 0,12.32864 9.99404,22.32264 22.32263,22.32264 12.32859,0 22.32263,-9.994 22.32263,-22.32264 0,-12.32863 -9.99404,-22.32263 -22.32263,-22.32263 z m -59.52702,0 c -12.32863,0 -22.32263,9.994 -22.32263,22.32263 0,12.32864 9.994,22.32264 22.32263,22.32264 12.32861,0 22.32264,-9.994 22.32264,-22.32264 0,-12.32863 -9.99403,-22.32263 -22.32264,-22.32263 z M 961.21292,720.3446 H 544.5237 c -16.43783,0 -29.76353,-13.32571 -29.76353,-29.76353 v -59.52702 c 0,-16.43779 13.3257,-29.76349 29.76353,-29.76349 h 416.68922 c 16.43783,0 29.76353,13.32566 29.76353,29.76349 v 59.52702 c 0,16.43782 -13.3257,29.76353 -29.76353,29.76353 z m -44.64527,-81.84967 c -12.32859,0 -22.32263,9.994 -22.32263,22.32267 0,12.32861 9.99404,22.32265 22.32263,22.32265 12.32859,0 22.32263,-9.99404 22.32263,-22.32265 0,-12.32867 -9.99404,-22.32267 -22.32263,-22.32267 z m -59.52702,0 c -12.32863,0 -22.32263,9.994 -22.32263,22.32267 0,12.32861 9.994,22.32265 22.32263,22.32265 12.32861,0 22.32264,-9.99404 22.32264,-22.32265 0,-12.32867 -9.99403,-22.32267 -22.32264,-22.32267 z"
                 id="path2216"
                 style="stroke-width:0.930108;filter:url(#filter2799)" />
            </g>
          </g>
          <text
             xml:space="preserve"
             id="text494"
             style="font-style:normal;font-variant:normal;font-weight:normal;font-stretch:normal;font-size:458.611px;line-height:1.25;font-family:'Red Hat Text';-inkscape-font-specification:'Red Hat Text';white-space:pre;shape-inside:url(#rect496);fill:#000000;fill-opacity:1;stroke:none;"
             transform="matrix(1.1781726,0,0,1.1781726,-372.0307,-72.872207)"><tspan
               x="1274.9023"
               y="663.81619"><tspan
                 style="font-style:normal;font-variant:normal;font-weight:normal;font-stretch:normal;font-size:458.611px;font-family:'Red Hat Text';-inkscape-font-specification:'Red Hat Text'">bofied</tspan></tspan></text>
        </g>
      </g>
    </g>
  </g>
</svg>
